<?xml version="1.0" encoding="UTF-8"?>
<svg version="1.1" xmlns="http://www.w3.org/2000/svg" width="825" height="827">
<path d="M0 0 C17.99576686 10.16628329 34.56203803 23.65432687 50.375 36.875 C50.89642578 37.31005859 51.41785156 37.74511719 51.95507812 38.19335938 C82.08242343 63.41211713 82.08242343 63.41211713 83.375 69.875 C84.27927734 69.59825439 85.18355469 69.32150879 86.11523438 69.03637695 C140.71531432 52.38569867 140.71531432 52.38569867 154.375 53.875 C156.26171875 55 156.26171875 55 157.375 56.875 C157.11712685 64.71864174 151.48051467 70.56721043 146.3359375 76.046875 C133.7502695 87.83120834 117.58623442 95.15536734 102.375 102.875 C102.38660156 103.76960938 102.39820313 104.66421875 102.41015625 105.5859375 C102.45237429 111.24315496 102.48188613 116.71244623 101.625 122.3125 C101.09797171 127.15801386 102.48247679 130.05468633 105.375 133.875 C106.75218482 135.72754447 108.12701321 137.58184208 109.5 139.4375 C110.18320312 140.32566406 110.86640625 141.21382812 111.5703125 142.12890625 C113.48288386 145.03916094 114.61952999 147.47538496 115.375 150.875 C113.1717746 154.1798381 112.54932399 154.44158911 108.9375 155.5625 C107.76380859 155.93955078 107.76380859 155.93955078 106.56640625 156.32421875 C104.375 156.875 104.375 156.875 101.375 156.875 C101.37113281 157.76251953 101.37113281 157.76251953 101.3671875 158.66796875 C101.05508525 165.04525811 101.05508525 165.04525811 98.97265625 167.5859375 C97.3125 168.9375 97.3125 168.9375 94.375 170.875 C94.725625 171.37 95.07625 171.865 95.4375 172.375 C97.34439859 177.46006289 95.78148337 182.42745744 93.625 187.1875 C91.74567301 190.61609297 90.14204037 192.47331056 86.375 193.875 C81.00802189 194.50640919 76.78425285 193.17879139 71.75390625 191.54296875 C68.89820745 190.74112229 66.32492078 190.64211152 63.375 190.875 C62.95927734 191.72578125 62.95927734 191.72578125 62.53515625 192.59375 C60.9661452 195.67894344 59.22575124 198.65886135 57.49609375 201.65625 C56.44110036 203.74418118 55.83693383 205.59128221 55.375 207.875 C56.12265625 208.12894531 56.8703125 208.38289062 57.640625 208.64453125 C69.37062881 213.92303296 77.27756087 232.47637563 81.85546875 243.73828125 C87.34681917 258.35135451 91.6206578 273.41013666 95.8125 288.4375 C96.15458496 289.65574463 96.49666992 290.87398926 96.84912109 292.12915039 C98.47324678 298.05328313 99.8375813 303.75145449 100.375 309.875 C103.72911159 310.33373693 107.08330022 310.79190837 110.4375 311.25 C111.36111328 311.37632812 112.28472656 311.50265625 113.23632812 311.6328125 C115.20377141 311.90140544 117.17147972 312.16806193 119.1394043 312.43310547 C121.38957159 312.74041723 123.63836328 313.0579026 125.88598633 313.38330078 C134.53073267 314.60514484 143.13066694 315.49018341 151.84887695 315.89257812 C153.25838436 315.96507178 154.66708767 316.05501289 156.07446289 316.16113281 C164.24589969 317.0722739 164.24589969 317.0722739 171.54174805 314.21069336 C173.05749288 312.16758924 174.22403688 310.13895518 175.375 307.875 C181.14106192 301.55428683 188.39854506 297.51055307 196.64453125 295.25390625 C200.9469545 294.0610738 202.95733724 292.61075838 205.375 288.8125 C206.41820844 286.85576373 207.4109641 284.87193151 208.375 282.875 C208.7162793 282.1826123 209.05755859 281.49022461 209.40917969 280.77685547 C210.54805344 278.44570767 211.65430912 276.10173264 212.75 273.75 C213.10835937 272.998396 213.46671875 272.24679199 213.8359375 271.47241211 C216.65608865 265.18284162 217.50961459 260.30720914 215.28125 253.56640625 C214.8171875 252.53386719 214.353125 251.50132812 213.875 250.4375 C211.59217384 244.81522528 210.41749282 240.90729525 211.375 234.875 C213.96701593 232.07282061 215.77386501 231.07537833 219.375 229.875 C219.21435059 229.36138916 219.05370117 228.84777832 218.88818359 228.31860352 C218.2148535 225.11243753 218.20925075 222.05390609 218.1640625 218.77734375 C218.13844149 217.33486611 218.11204147 215.89240215 218.08496094 214.44995117 C218.07170776 213.6937851 218.05845459 212.93761902 218.0447998 212.15853882 C217.6198923 189.90733668 215.90910934 168.26371474 210.4609375 146.6171875 C207.49847698 134.36833551 207.49847698 134.36833551 210.0625 130 C224.04865777 121.02774785 246.29789117 123.54231441 261.96875 126.7734375 C283.39196589 131.81136102 303.23405181 142.83052325 318.375 158.875 C319.375 160.8125 319.375 160.8125 319.375 162.875 C317.38981776 167.41714837 314.87054149 170.96725504 311.6875 174.75 C310.47513672 176.20019531 310.47513672 176.20019531 309.23828125 177.6796875 C308.31595703 178.76636719 308.31595703 178.76636719 307.375 179.875 C311.74942261 176.64044385 314.11534516 173.42527453 316.84765625 168.80078125 C318.375 166.875 318.375 166.875 320.30859375 165.85546875 C322.375 165.875 322.375 165.875 324.36328125 167.37109375 C326.78147578 170.38092422 328.69879561 173.57024423 330.5625 176.9375 C330.91763672 177.56205078 331.27277344 178.18660156 331.63867188 178.83007812 C334.59878574 184.09312687 336.53243524 188.771167 335.375 194.875 C333.71474565 197.85565798 331.61751931 200.31629033 329.375 202.875 C328.22451172 204.32326172 328.22451172 204.32326172 327.05078125 205.80078125 C324.44217877 208.92699849 321.47312325 211.46485773 318.25 213.9375 C317.34809937 214.6346814 317.34809937 214.6346814 316.42797852 215.34594727 C272.55958435 248.82518806 272.55958435 248.82518806 256.375 246.875 C253.22316314 245.97162843 250.29465821 244.72886324 247.3125 243.375 C246.54228516 243.04113281 245.77207031 242.70726562 244.97851562 242.36328125 C243.104286 241.5483988 241.23866742 240.71375732 239.375 239.875 C243.356082 243.31644684 248.07989539 244.76915393 252.97460938 246.44921875 C256.22242311 247.65545741 258.18632774 248.64363015 260.39453125 251.3515625 C261.375 253.875 261.375 253.875 260.5 257.375 C258.36086669 261.44112117 255.58404345 264.05761206 251.375 265.875 C247.51355053 266.7546671 243.72014001 267.43274342 239.80078125 268.00390625 C235.88829178 268.99875819 234.95443555 269.86015296 232.375 272.875 C230.0757325 276.7473486 228.09401401 280.77798637 226.09179688 284.81005859 C225.12780461 286.74437237 224.14295895 288.66703892 223.15625 290.58984375 C222.53516141 291.82747501 221.91532705 293.06573664 221.296875 294.3046875 C220.45527832 295.97893799 220.45527832 295.97893799 219.59667969 297.68701172 C218.30168053 301.06632808 217.93165802 303.29352943 218.375 306.875 C219.220625 307.82375 220.06625 308.7725 220.9375 309.75 C223.375 312.875 223.375 312.875 223.328125 316.46875 C222.4863393 321.66462018 220.09111779 325.94197651 217.5625 330.5 C217.12357422 331.31984375 216.68464844 332.1396875 216.23242188 332.984375 C209.15402796 346.06836018 209.15402796 346.06836018 204.25 348.25 C203.56679688 348.56710937 202.88359375 348.88421875 202.1796875 349.2109375 C200.375 349.875 200.375 349.875 198.375 349.875 C197.974021 350.92361206 197.974021 350.92361206 197.56494141 351.9934082 C196.29277627 355.07411503 194.84678096 358.00959905 193.3359375 360.98046875 C192.75585938 362.12837891 192.17578125 363.27628906 191.578125 364.45898438 C190.66004131 366.27022529 189.74068361 368.08079795 188.81933594 369.89038086 C187.92557089 371.64781866 187.03692269 373.40785578 186.1484375 375.16796875 C185.61653809 376.2149292 185.08463867 377.26188965 184.53662109 378.34057617 C183.23611409 380.71336274 183.23611409 380.71336274 183.375 382.875 C189.7643376 380.82312636 196.01090759 378.51133909 202.2421875 376.0234375 C203.17896835 375.65175949 204.11574921 375.28008148 205.08091736 374.8971405 C207.0928393 374.09854046 209.10431707 373.29882068 211.11538696 372.49807739 C214.29177477 371.23336696 217.4693324 369.97163814 220.6472168 368.71069336 C225.03884219 366.96787908 229.43002343 365.22395359 233.82080078 363.47900391 C243.01504882 359.82549247 252.21188517 356.17853685 261.41094971 352.53717041 C264.1252485 351.4621551 266.83877011 350.38519563 269.55224609 349.30810547 C295.85513266 338.88142388 295.85513266 338.88142388 301.375 339.875 C305.59207651 342.87380996 307.26615574 345.99722627 308.20703125 350.953125 C308.47252459 353.9908628 308.17656996 355.38051851 306.375 357.875 C301.12526471 361.04528168 295.25870618 363.24618959 289.5859375 365.53515625 C288.32677521 366.04796646 288.32677521 366.04796646 287.04217529 366.57113647 C285.22904115 367.30925449 283.41534234 368.0459867 281.60113525 368.78146362 C276.65322043 370.78767133 271.70976984 372.80483623 266.765625 374.8203125 C265.74014557 375.23802414 264.71466614 375.65573578 263.65811157 376.08610535 C252.92449676 380.46047819 242.2108488 384.88273723 231.5 389.3125 C229.60498856 390.09588547 227.70996901 390.8792513 225.81494141 391.66259766 C221.00332391 393.65182137 216.19200525 395.64176695 211.3807373 397.63183594 C202.97753169 401.10737693 194.57365741 404.58129938 186.16937256 408.05422974 C183.20272032 409.2803774 180.23635963 410.5072283 177.27001953 411.73413086 C175.44565158 412.4881513 173.62127074 413.24214056 171.796875 413.99609375 C170.5842247 414.49798218 170.5842247 414.49798218 169.34707642 415.01000977 C167.80574199 415.64666578 166.26311884 416.2802123 164.71911621 416.91036987 C163.05480811 417.59525133 161.39658367 418.29500028 159.74279785 419.00491333 C158.87022339 419.37204437 157.99764893 419.73917542 157.09863281 420.11743164 C156.31353333 420.45368057 155.52843384 420.7899295 154.71954346 421.1363678 C152.11026151 421.95840403 150.09454483 422.13616868 147.375 421.875 C145.6796875 420.08203125 145.6796875 420.08203125 144.25 417.6875 C143.74984375 416.86378906 143.2496875 416.04007812 142.734375 415.19140625 C142.06148437 414.04478516 142.06148437 414.04478516 141.375 412.875 C140.75625 411.9675 140.1375 411.06 139.5 410.125 C138.1993955 407.52379101 138.12887786 405.74642497 138.375 402.875 C139.4475 402.33875 140.52 401.8025 141.625 401.25 C142.34816406 400.88132812 143.07132813 400.51265625 143.81640625 400.1328125 C145.65677427 399.22808196 147.52260772 398.37449496 149.40234375 397.5546875 C150.96662109 396.84699219 150.96662109 396.84699219 152.5625 396.125 C153.54605469 395.69703125 154.52960938 395.2690625 155.54296875 394.828125 C162.55098429 389.99501083 165.40035227 380.77409801 168.75 373.25 C172.76555018 364.35041544 176.89880168 355.55240835 181.375 346.875 C180.30507813 347.05933594 179.23515625 347.24367188 178.1328125 347.43359375 C174.87101803 347.81673593 173.26823613 347.87229783 170.25 346.9375 C160.30234889 344.52494674 150.55615956 346.05723034 140.5625 347.375 C119.56926866 350.07745751 90.62918044 353.16404336 72.375 339.875 C66.25613663 334.06149258 58.74654871 323.48614377 58.18359375 314.984375 C58.24675781 314.28828125 58.30992187 313.5921875 58.375 312.875 C53.26668193 316.87780745 49.41170444 321.04853081 45.8125 326.4375 C45.34070313 327.13496338 44.86890625 327.83242676 44.3828125 328.55102539 C38.91691944 336.81668289 34.81906611 345.54580102 32.015625 355.0703125 C31.375 356.875 31.375 356.875 29.375 359.875 C30.38046875 359.96523438 31.3859375 360.05546875 32.421875 360.1484375 C39.26966023 361.01117427 45.94169139 362.81874707 52.625 364.5 C53.69113525 364.76744019 53.69113525 364.76744019 54.77880859 365.0402832 C72.50669469 369.51313456 89.34198504 374.94851059 105.375 383.875 C106.36886719 384.42800781 107.36273437 384.98101562 108.38671875 385.55078125 C124.32063383 395.07476188 137.35177959 409.54403343 142.13818359 427.78320312 C144.16673605 436.64296024 145.30884626 445.51399434 146.25537109 454.54296875 C146.49982075 456.87329125 146.75484566 459.20226734 147.01171875 461.53125 C148.36401767 473.94691725 149.5404084 486.37659081 149.625 498.875 C149.6559375 500.06416016 149.6559375 500.06416016 149.6875 501.27734375 C149.72570616 507.01781992 148.80006904 511.18115756 144.82421875 515.59765625 C135.68469473 522.54855811 123.75723874 526.03777754 112.375 526.875 C112.045 526.545 111.715 526.215 111.375 525.875 C111.4609375 524.08984375 111.4609375 524.08984375 111.75 521.8125 C111.84023438 521.07902344 111.93046875 520.34554687 112.0234375 519.58984375 C112.13945313 518.69394531 112.25546875 517.79804687 112.375 516.875 C112.55522814 515.43886983 112.73488592 514.002668 112.9140625 512.56640625 C113.14222656 510.73916016 113.14222656 510.73916016 113.375 508.875 C112.96326538 509.60928223 112.96326538 509.60928223 112.54321289 510.35839844 C106.57357526 520.97379654 100.44382949 531.47462769 94.08096313 541.85922241 C88.01283383 551.77164808 82.02627232 561.72666239 76.25 571.8125 C75.63979004 572.85438477 75.02958008 573.89626953 74.40087891 574.96972656 C73.57982666 576.42137207 73.57982666 576.42137207 72.7421875 577.90234375 C72.25862793 578.74531006 71.77506836 579.58827637 71.27685547 580.45678711 C70.18114263 583.39480435 70.40280811 584.92426284 71.375 587.875 C71.9525 588.4525 72.53 589.03 73.125 589.625 C74.375 591.875 74.375 591.875 74.078125 593.7734375 C72.43239353 598.98492049 70.02036118 603.79691124 67.4609375 608.61328125 C62.38451682 619.18611424 65.2417836 633.20267803 68.68603516 643.92724609 C71.85458636 652.88497165 76.50682522 660.67546366 82.67578125 667.88671875 C86.01023093 671.78840814 86.78673086 674.03386369 86.61328125 679 C86.375 680.875 86.375 680.875 85.375 682.875 C78.41609508 686.35445246 69.24501298 682.81017673 62.29882812 680.56835938 C48.97434688 675.76613517 38.64986582 667.60025236 32.375 654.875 C30.06237353 648.97926943 28.19568198 642.93727076 26.375 636.875 C23.6894406 639.5605594 23.31450026 642.25121328 22.375 645.875 C17.48558486 646.48617689 15.11084348 646.05188261 11.125 643.0625 C9.85018739 642.02990179 8.5983709 640.9680553 7.375 639.875 C6.78203125 639.45863281 6.1890625 639.04226563 5.578125 638.61328125 C4.375 636.875 4.375 636.875 4.609375 633.76953125 C4.86203125 632.48433594 5.1146875 631.19914063 5.375 629.875 C5.57668104 628.38008938 5.76895576 626.88388765 5.953125 625.38671875 C7.89499705 610.98844794 10.78795701 603.0787614 21.6015625 592.9609375 C25.26498559 589.20749173 27.39337136 584.63359042 29.38598633 579.82543945 C30.6121362 577.12393954 31.60958622 575.20668548 34.39306641 574.00048828 C36.61328125 573.44140625 36.61328125 573.44140625 40.375 572.875 C40.61827026 571.930802 40.61827026 571.930802 40.86645508 570.9675293 C42.94832923 563.09533168 45.45575041 555.3996539 48.0625 547.6875 C48.68608398 545.8302832 48.68608398 545.8302832 49.32226562 543.93554688 C50.33708314 540.91442347 51.35470971 537.8942786 52.375 534.875 C51.72128418 535.28057129 51.06756836 535.68614258 50.39404297 536.10400391 C39.1452017 542.98669577 29.66187402 545.40255961 16.52978516 544.90380859 C7.45777896 544.59533513 0.72228828 546.13717411 -6.29150391 552.3515625 C-8.04423133 553.99186576 -9.74494293 555.67279324 -11.4375 557.375 C-12.31438477 558.22771484 -12.31438477 558.22771484 -13.20898438 559.09765625 C-13.76521484 559.65324219 -14.32144531 560.20882812 -14.89453125 560.78125 C-15.39573486 561.27947266 -15.89693848 561.77769531 -16.41333008 562.29101562 C-18.55324663 565.08847252 -18.61925064 567.79220918 -18.859375 571.25 C-19.78628204 575.63862108 -21.77808008 577.83890257 -24.875 580.875 C-25.8837085 581.92497606 -26.89024871 582.9770398 -27.89453125 584.03125 C-28.79558594 584.9696875 -29.69664062 585.908125 -30.625 586.875 C-40.94982882 598.45779647 -41.35942436 614.76618104 -40.80859375 629.484375 C-40.24785009 636.78597324 -37.18336915 642.88489513 -33.8125 649.25 C-32.1911182 652.36765698 -31.62785782 653.71781991 -31.5625 657.3125 C-32.86059939 660.44321029 -33.53466816 661.448693 -36.625 662.875 C-44.77575533 664.38439914 -51.90720763 660.17198375 -58.625 655.875 C-62.24175095 653.11637897 -65.45842864 650.13522227 -68.625 646.875 C-69.20894531 646.31167969 -69.79289063 645.74835937 -70.39453125 645.16796875 C-78.72354565 636.50157656 -80.80580766 625.09294699 -80.6875 613.5625 C-80.68298828 612.72654297 -80.67847656 611.89058594 -80.67382812 611.02929688 C-80.66210548 608.97783351 -80.64417203 606.92640727 -80.625 604.875 C-81.54152344 605.35839844 -82.45804688 605.84179688 -83.40234375 606.33984375 C-87.24358314 608.16967051 -89.42238508 608.56270062 -93.625 607.875 C-97.36740446 604.38208917 -99.7658758 601.02974522 -100.625 595.875 C-98.60201384 591.07977355 -95.74845655 587.04117563 -92.6875 582.875 C-91.82329326 581.68817336 -90.96000226 580.50067933 -90.09765625 579.3125 C-89.47165527 578.45229248 -89.47165527 578.45229248 -88.83300781 577.57470703 C-87.6781896 575.94983953 -86.58155785 574.28408455 -85.48828125 572.6171875 C-81.83097115 567.23473113 -77.35936991 564.21029938 -71.640625 561.16235352 C-64.58520917 557.40003041 -60.06215301 553.68762088 -55.1015625 547.29296875 C-52.62371578 544.87374617 -51.88276435 544.53782683 -48.7421875 543.67578125 C-42.98289516 541.77240044 -40.9179221 536.9336089 -38.125 531.875 C-37.58875 530.95976563 -37.0525 530.04453125 -36.5 529.1015625 C-33.53618008 524.29106606 -33.53618008 524.29106606 -32.625 518.875 C-33.89472656 518.92140625 -35.16445313 518.9678125 -36.47265625 519.015625 C-51.79951622 519.40743272 -65.59744846 517.88615225 -78.625 508.875 C-79.625 506.875 -79.625 506.875 -79.625 498.875 C-89.03 502.34 -89.03 502.34 -98.625 505.875 C-97.92315867 509.39052789 -97.92315867 509.39052789 -97.203125 512.90234375 C-96.58976083 516.47299945 -96.55798651 518.65301782 -97.625 522.1875 C-100.14936565 525.57961635 -102.53914639 527.08245212 -106.625 527.875 C-113.85185696 528.05967267 -120.76903985 525.94742902 -127.625 523.875 C-128.07230469 524.41769531 -128.51960937 524.96039062 -128.98046875 525.51953125 C-129.88732422 526.59267578 -129.88732422 526.59267578 -130.8125 527.6875 C-131.40417969 528.39519531 -131.99585938 529.10289062 -132.60546875 529.83203125 C-134.625 531.875 -134.625 531.875 -137.19140625 533.16015625 C-140.63131374 535.5841039 -141.24729897 538.63186419 -142.375 542.5 C-150.9164987 568.84854368 -167.96978159 590.29408937 -192.68603516 603.14794922 C-204.08180402 608.88762083 -214.63937408 613.04052955 -227.5 613.125 C-228.66595703 613.1559375 -228.66595703 613.1559375 -229.85546875 613.1875 C-235.20629707 613.22347196 -238.84703412 612.29583604 -243.625 609.875 C-243.625 608.885 -243.625 607.895 -243.625 606.875 C-242.68817383 606.43220703 -241.75134766 605.98941406 -240.78613281 605.53320312 C-237.24789817 603.8577581 -233.71571423 602.16986566 -230.18505859 600.47851562 C-228.66807935 599.75385422 -227.14956574 599.03239439 -225.62939453 598.31445312 C-209.40250165 590.92461768 -209.40250165 590.92461768 -195.625 579.875 C-196.97078125 580.7103125 -196.97078125 580.7103125 -198.34375 581.5625 C-236.29146678 604.88051548 -236.29146678 604.88051548 -256.23828125 601.421875 C-266.10497357 598.21165932 -274.4964056 588.97948002 -280.625 580.875 C-280.625 579.885 -280.625 578.895 -280.625 577.875 C-279.35438721 577.83741577 -279.35438721 577.83741577 -278.05810547 577.79907227 C-274.89344442 577.70352143 -271.72892437 577.60431434 -268.56445312 577.50268555 C-267.19893824 577.45956912 -265.83337748 577.41787932 -264.46777344 577.37768555 C-262.4966281 577.31941446 -260.52565332 577.25546264 -258.5546875 577.19140625 C-256.77940674 577.13641968 -256.77940674 577.13641968 -254.96826172 577.08032227 C-251.78942281 576.88509782 -248.75319551 576.46023498 -245.625 575.875 C-246.78515625 575.77703125 -247.9453125 575.6790625 -249.140625 575.578125 C-268.33490068 573.81052936 -282.17717493 567.8494997 -296.89453125 555.05078125 C-298.625 552.875 -298.625 552.875 -298.99829102 550.44824219 C-298.625 547.875 -298.625 547.875 -296.86376953 546.11694336 C-296.04505371 545.59237549 -295.22633789 545.06780762 -294.3828125 544.52734375 C-293.46918945 543.9329248 -292.55556641 543.33850586 -291.61425781 542.72607422 C-290.62780273 542.11521973 -289.64134766 541.50436523 -288.625 540.875 C-287.14918457 539.94905029 -287.14918457 539.94905029 -285.64355469 539.00439453 C-282.60983756 537.12435138 -279.55885755 535.27631704 -276.5 533.4375 C-275.448125 532.80134766 -274.39625 532.16519531 -273.3125 531.50976562 C-270.75185247 529.9617378 -268.18935158 528.41688131 -265.625 526.875 C-272.43379046 529.55441349 -279.14758183 532.38414269 -285.81054688 535.40625 C-293.07468975 538.64111954 -299.72876894 541.1524967 -307.625 538.875 C-314.39050802 535.47341805 -319.04583421 529.42124235 -322.625 522.875 C-323.31640625 520.06640625 -323.31640625 520.06640625 -323.625 517.875 C-320.72707483 516.42603741 -318.04424111 516.67898912 -314.8125 516.5625 C-297.29637909 515.55690999 -283.92109637 506.89372252 -269.5 497.75 C-243.08308075 481.03791055 -216.09509827 476.45049908 -185.625 482.875 C-177.55999482 484.80545337 -170.56966696 487.67034429 -163.37890625 491.80078125 C-159.99532661 493.12061728 -158.09869734 492.78811377 -154.625 491.875 C-153.8 491.50375 -152.975 491.1325 -152.125 490.75 C-148.82487319 489.59495562 -146.93806629 489.7946523 -143.625 490.875 C-141.9453125 493.43359375 -141.9453125 493.43359375 -140.625 495.875 C-140.41746094 495.029375 -140.20992187 494.18375 -139.99609375 493.3125 C-137.78678631 485.17781151 -135.18311447 478.19886252 -127.65234375 473.6953125 C-124.33363502 472.35248238 -121.09703874 472.19719164 -117.625 472.875 C-114.00714345 475.68888843 -111.79990228 478.86860107 -109.625 482.875 C-104.03775169 482.3012593 -99.58928644 480.24245057 -94.578125 477.875 C-93.72571228 477.47925781 -92.87329956 477.08351563 -91.99505615 476.67578125 C-89.28512413 475.41568864 -86.58007317 474.14548446 -83.875 472.875 C-82.04067423 472.02016857 -80.20604188 471.16599469 -78.37109375 470.3125 C-70.46314543 466.66653198 -70.46314543 466.66653198 -62.625 462.875 C-62.625 462.215 -62.625 461.555 -62.625 460.875 C-64.21072943 459.81382745 -65.84674792 458.8275663 -67.5 457.875 C-80.01467171 450.04126591 -88.4847798 439.54609832 -92.0625 425.0625 C-95.57282915 400.88461495 -88.59719554 379.62631264 -74.8671875 359.859375 C-68.25794565 351.06240502 -60.89142722 342.97140407 -53.1875 335.125 C-52.6085498 334.5283252 -52.02959961 333.93165039 -51.43310547 333.31689453 C-48.36553919 330.25468022 -45.89271597 328.11941811 -41.625 326.875 C-41.28752452 324.00043208 -40.95489537 321.12543941 -40.625 318.25 C-40.52960938 317.44175781 -40.43421875 316.63351562 -40.3359375 315.80078125 C-39.57480876 309.35280181 -39.57480876 309.35280181 -39.625 302.875 C-40.285 302.215 -40.945 301.555 -41.625 300.875 C-42.17027344 301.23851562 -42.71554687 301.60203125 -43.27734375 301.9765625 C-44.86117834 303.03245223 -46.44587341 304.08705195 -48.03125 305.140625 C-49.74604734 306.28726659 -51.45454491 307.44339188 -53.15625 308.609375 C-53.9503125 309.15078125 -54.744375 309.6921875 -55.5625 310.25 C-56.65884766 311.00410156 -56.65884766 311.00410156 -57.77734375 311.7734375 C-59.625 312.875 -59.625 312.875 -61.625 312.875 C-61.54378906 313.5040625 -61.46257812 314.133125 -61.37890625 314.78125 C-61.01070726 319.77072198 -61.15406432 323.0755126 -64.4375 327 C-70.28456086 332.83517659 -77.06068428 339.36634589 -85.625 339.875 C-88.3125 338.125 -88.3125 338.125 -90.625 335.875 C-91.223125 335.2975 -91.82125 334.72 -92.4375 334.125 C-92.829375 333.7125 -93.22125 333.3 -93.625 332.875 C-100.27588498 335.47138509 -106.28992093 339.01639012 -112.4375 342.625 C-113.46681641 343.22054688 -114.49613281 343.81609375 -115.55664062 344.4296875 C-117.61493002 345.63263462 -119.65838132 346.86133767 -121.68603516 348.11523438 C-124.625 349.875 -124.625 349.875 -127.40380859 351.15039062 C-132.11943984 353.61901166 -134.56852266 356.14934501 -136.33129883 361.15234375 C-137.70948917 365.68986998 -138.81004651 370.28936964 -139.89648438 374.90405273 C-141.1110195 379.85702793 -142.59460962 384.72668472 -144.0625 389.609375 C-144.6542341 391.60529444 -145.24537688 393.60138928 -145.8359375 395.59765625 C-146.13081055 396.59039551 -146.42568359 397.58313477 -146.72949219 398.60595703 C-147.32845012 400.62523561 -147.92544319 402.64509801 -148.52050781 404.66552734 C-150.50899642 411.41660916 -152.53304133 418.15520866 -154.625 424.875 C-154.89199707 425.73327393 -155.15899414 426.59154785 -155.43408203 427.47583008 C-156.18478424 429.85088453 -156.96122567 432.21547882 -157.75 434.578125 C-157.9672876 435.2660614 -158.1845752 435.9539978 -158.40844727 436.66278076 C-159.92759774 441.07019435 -161.52971206 443.58227683 -165.625 445.875 C-170.81192671 446.20630686 -175.45477788 445.4249209 -180.45507812 444.16601562 C-181.20609802 443.98379456 -181.95711792 443.80157349 -182.730896 443.61383057 C-185.20797944 443.01070966 -187.68205883 442.39611876 -190.15625 441.78125 C-191.91028199 441.35136045 -193.66447646 440.92213335 -195.41882324 440.49353027 C-200.05128708 439.35963539 -204.68123314 438.21576097 -209.31079102 437.07006836 C-213.90344577 435.93574997 -218.49877427 434.81237144 -223.09375 433.6875 C-231.0991286 431.7261043 -239.09887735 429.74291624 -247.09526062 427.74517822 C-251.97560368 426.52775852 -256.86030088 425.33120606 -261.75107574 424.15641022 C-264.65335907 423.45652821 -267.55210945 422.74278439 -270.45018005 422.02568054 C-272.4059751 421.54662615 -274.36609299 421.08532847 -276.32629395 420.62463379 C-280.97262252 419.46349434 -284.85327478 418.34910515 -288.94726562 415.83398438 C-293.89238172 407.11238846 -289.63568609 394.35717828 -288.03515625 384.90234375 C-287.7678312 383.28629055 -287.50119583 381.67012313 -287.23521423 380.05384827 C-286.67985841 376.69033086 -286.11876559 373.32784264 -285.55297852 369.96606445 C-284.82723699 365.65320331 -284.11222382 361.33865114 -283.40094852 357.02338314 C-282.85216144 353.69702 -282.29976866 350.37126459 -281.74606133 347.04571724 C-281.48106326 345.4537713 -281.21673341 343.86171398 -280.95308113 342.2695446 C-280.58546616 340.05533397 -280.21347547 337.84190561 -279.84008789 335.62866211 C-279.52365074 333.73983559 -279.52365074 333.73983559 -279.20082092 331.81285095 C-278.625 328.875 -278.625 328.875 -277.625 326.875 C-271.24684055 326.53195047 -265.5536155 327.82546779 -259.36328125 329.28125 C-258.29506638 329.52540649 -257.2268515 329.76956299 -256.12626648 330.02111816 C-252.72832346 330.79860715 -249.33279757 331.58604519 -245.9375 332.375 C-242.53125087 333.16281378 -239.12453537 333.94839997 -235.71659851 334.72888184 C-233.59983943 335.21400227 -231.48408103 335.70351456 -229.36946106 336.19787598 C-228.41134018 336.41810425 -227.4532193 336.63833252 -226.46606445 336.86523438 C-225.20533867 337.1583551 -225.20533867 337.1583551 -223.91914368 337.45739746 C-221.3577515 337.99439132 -221.3577515 337.99439132 -217.625 337.875 C-220.1649859 336.31193175 -221.52939795 335.87296591 -224.5625 335.9375 C-227.625 335.875 -227.625 335.875 -229.80639648 334.50585938 C-233.31575482 332.47532549 -236.87427255 331.62043909 -240.78515625 330.71875 C-241.57087509 330.53034546 -242.35659393 330.34194092 -243.16612244 330.14782715 C-245.67142642 329.54889557 -248.17929977 328.96167115 -250.6875 328.375 C-252.34589203 327.98126354 -254.00409725 327.58673939 -255.66210938 327.19140625 C-258.85774843 326.43021983 -262.05388009 325.67116826 -265.25048828 324.9140625 C-269.08469442 324.00426148 -272.91775655 323.09051621 -276.74609375 322.15625 C-277.67736084 321.93001953 -278.60862793 321.70378906 -279.56811523 321.47070312 C-281.625 320.875 -281.625 320.875 -282.625 319.875 C-282.99596391 316.01697538 -283.01884758 313.60105854 -281.15234375 310.16015625 C-277.99184074 307.30251442 -276.35233409 307.34747283 -272.23046875 307.43554688 C-271.45316406 307.47744141 -270.67585938 307.51933594 -269.875 307.5625 C-269.08222656 307.58505859 -268.28945313 307.60761719 -267.47265625 307.63085938 C-265.5226238 307.68959529 -263.57356688 307.77927346 -261.625 307.875 C-261.51542969 307.17117188 -261.40585937 306.46734375 -261.29296875 305.7421875 C-260.76401287 302.44803952 -260.19924446 299.16155635 -259.625 295.875 C-259.43035156 294.72257812 -259.23570312 293.57015625 -259.03515625 292.3828125 C-257.20335869 282.64935567 -254.76720111 272.467342 -246.375 266.375 C-245.70984375 265.9728125 -245.0446875 265.570625 -244.359375 265.15625 C-242.18375897 263.54903816 -241.52454286 262.42739749 -240.625 259.875 C-240.29532442 256.56989802 -240.18439281 253.28759773 -240.06640625 249.96875 C-239.57732669 246.54086494 -239.32482327 245.06623933 -236.625 242.875 C-233.86917324 242.71414227 -231.58473251 242.76828634 -228.875 243.0625 C-228.1840625 243.11986328 -227.493125 243.17722656 -226.78125 243.23632812 C-225.40008767 243.35705002 -224.02030618 243.49482632 -222.64257812 243.64990234 C-220.69820547 243.86683259 -218.74730031 244.02253355 -216.796875 244.17578125 C-213.625 244.875 -213.625 244.875 -211.65234375 246.37890625 C-209.80858877 250.85859991 -210.91548855 255.51983207 -211.47460938 260.23242188 C-211.96714952 265.23875736 -211.96714952 265.23875736 -209.77734375 269.69140625 C-209.06707031 270.41199219 -208.35679687 271.13257813 -207.625 271.875 C-205.56547067 275.37957613 -204.97379034 278.7892459 -204.28515625 282.75390625 C-203.48360947 285.32929027 -202.82669197 286.31051477 -200.625 287.875 C-197.51660979 288.6019226 -197.51660979 288.6019226 -194.625 288.875 C-194.20541016 287.74964844 -194.20541016 287.74964844 -193.77734375 286.6015625 C-191.23933364 280.12188396 -188.34725488 274.71932868 -184.19921875 269.140625 C-182.75365795 267.06016529 -181.75045104 265.15499701 -180.8125 262.8125 C-179.625 259.875 -179.625 259.875 -177.625 258.875 C-175.53125 258.99609375 -175.53125 258.99609375 -173.125 259.3125 C-169.88397568 259.73449355 -169.88397568 259.73449355 -166.625 259.875 C-167.429375 259.58625 -168.23375 259.2975 -169.0625 259 C-171.625 257.875 -171.625 257.875 -172.625 255.875 C-172.58010184 250.2627306 -171.5002561 245.75043425 -168.625 240.875 C-154.9917426 242.80210706 -154.9917426 242.80210706 -148.625 244.875 C-148.19734583 251.28981258 -149.76756832 256.76095404 -151.625 262.875 C-150.82835937 263.32939453 -150.82835937 263.32939453 -150.015625 263.79296875 C-143.41290275 267.7088168 -139.6671277 271.26509814 -137.625 278.875 C-137.61478127 286.8047343 -139.52698526 294.67276436 -141.359375 302.34765625 C-141.59582481 303.33969559 -141.59582481 303.33969559 -141.83705139 304.35177612 C-142.6424342 307.70833524 -143.46895599 311.0580863 -144.32397461 314.40234375 C-144.78815796 316.27792969 -144.78815796 316.27792969 -145.26171875 318.19140625 C-145.69037231 319.86891968 -145.69037231 319.86891968 -146.12768555 321.58032227 C-146.68925231 325.30066758 -146.43667653 328.20948106 -145.625 331.875 C-144.965 332.535 -144.305 333.195 -143.625 333.875 C-138.45757083 333.6816861 -135.07358633 331.51929348 -131.0625 328.5 C-130.46042725 328.05156738 -129.85835449 327.60313477 -129.23803711 327.14111328 C-127.98300088 326.19742037 -126.73278464 325.24728543 -125.48730469 324.29101562 C-123.70434853 322.93533318 -121.89163344 321.63152997 -120.0703125 320.328125 C-112.9407729 315.01352527 -109.39348273 310.26020529 -106.29516602 301.93920898 C-103.20271453 293.99596436 -97.67384593 288.7087023 -91.625 282.875 C-90.39431566 281.66821245 -89.16484714 280.46018145 -87.9375 279.25 C-87.40382813 278.7240625 -86.87015625 278.198125 -86.3203125 277.65625 C-77.09041367 267.95847611 -69.18470455 256.70807369 -61.25 245.9375 C-53.18151507 235.16528997 -44.33154252 225.19499879 -34.625 215.875 C-44.18732861 219.73670963 -51.21014507 227.22833287 -58.1875 234.625 C-64.39234168 240.9362973 -72.66904427 246.27077261 -81.58984375 247.17578125 C-87.67823965 247.19978281 -92.33974547 247.04615272 -97.625 243.875 C-97.955 242.885 -98.285 241.895 -98.625 240.875 C-97.70976562 240.59785156 -96.79453125 240.32070313 -95.8515625 240.03515625 C-94.66304687 239.67292969 -93.47453125 239.31070313 -92.25 238.9375 C-91.06664062 238.57785156 -89.88328125 238.21820313 -88.6640625 237.84765625 C-85.74573182 236.99923726 -85.74573182 236.99923726 -83.625 235.875 C-84.8109375 235.90980469 -85.996875 235.94460938 -87.21875 235.98046875 C-106.09676183 236.37094005 -123.22939104 234.39130103 -138.0625 221.4375 C-142.13052168 217.51068238 -146.30057612 213.46534688 -149.625 208.875 C-149.625 208.215 -149.625 207.555 -149.625 206.875 C-148.11873047 207.18244141 -148.11873047 207.18244141 -146.58203125 207.49609375 C-137.93242682 209.21560622 -129.45265619 210.43664036 -120.625 210.875 C-120.625 210.215 -120.625 209.555 -120.625 208.875 C-121.19605469 208.84921875 -121.76710938 208.8234375 -122.35546875 208.796875 C-136.5023661 207.80726692 -151.01836749 202.78832394 -160.8359375 192.203125 C-167.06043569 184.10312298 -170.34372337 175.63225564 -169.3984375 165.4296875 C-168.49134275 160.04047753 -166.84552375 157.31805885 -162.625 153.875 C-159.28976623 156.09848918 -159.2027334 156.48729064 -158.25 160.125 C-156.75645479 164.85709988 -155.36478087 167.54171705 -151.625 170.875 C-145.98966124 173.5336074 -140.88966455 173.02659018 -135.08203125 171.20703125 C-121.996245 166.91836161 -121.996245 166.91836161 -110.625 159.875 C-113.56631891 158.89456036 -115.45001665 158.75878798 -118.51171875 158.77734375 C-119.9184082 158.78217773 -119.9184082 158.78217773 -121.35351562 158.78710938 C-122.32998047 158.79548828 -123.30644531 158.80386719 -124.3125 158.8125 C-125.79459961 158.81926758 -125.79459961 158.81926758 -127.30664062 158.82617188 C-129.74615474 158.83795697 -132.18554689 158.85440989 -134.625 158.875 C-129.88937652 148.63862239 -123.28279153 141.62763157 -112.84765625 136.91796875 C-100.84841962 133.03457944 -90.56267048 137.10117375 -79.625 141.875 C-78.29723201 142.44224265 -76.9691116 143.00866115 -75.640625 143.57421875 C-73.25708058 144.5909797 -70.88516168 145.62602139 -68.515625 146.67578125 C-63.11877396 148.91474513 -58.40125604 149.05788638 -52.625 149.0625 C-51.81804687 149.07474609 -51.01109375 149.08699219 -50.1796875 149.09960938 C-49.39851563 149.10154297 -48.61734375 149.10347656 -47.8125 149.10546875 C-47.10480469 149.10957764 -46.39710938 149.11368652 -45.66796875 149.11791992 C-43.30664933 148.8371464 -41.68107177 148.04078114 -39.625 146.875 C-40.63820313 146.70484375 -41.65140625 146.5346875 -42.6953125 146.359375 C-44.04700801 146.11531887 -45.39856338 145.87048568 -46.75 145.625 C-47.41515625 145.51542969 -48.0803125 145.40585938 -48.765625 145.29296875 C-53.4760599 144.4155348 -56.86306807 143.00803754 -60.625 139.875 C-61.28564453 137.74121094 -61.28564453 137.74121094 -61.625 135.875 C-54.75307619 131.06038097 -47.58987891 127.00105013 -40.1875 123.0625 C-39.05328613 122.45519043 -37.91907227 121.84788086 -36.75048828 121.22216797 C-27.45889435 116.26866322 -18.0861102 111.49554219 -8.625 106.875 C-11.595 107.865 -14.565 108.855 -17.625 109.875 C-18.41494543 100.03106461 -18.70106338 90.36853913 -18.1875 80.5 C-18.14181885 79.56027344 -18.0961377 78.62054688 -18.04907227 77.65234375 C-17.85721945 73.83821538 -17.63928869 70.03940813 -17.30859375 66.234375 C-16.79957273 57.9600759 -19.83942347 52.52283708 -24.625 45.875 C-25.285 45.215 -25.945 44.555 -26.625 43.875 C-27.65238281 44.39449219 -28.67976563 44.91398437 -29.73828125 45.44921875 C-33.35246002 47.27206763 -36.97600097 49.07544556 -40.60400391 50.87060547 C-42.26584885 51.69650908 -43.92099759 52.53587294 -45.57421875 53.37890625 C-61.27544989 61.04918609 -77.84963704 63.39834472 -94.625 57.875 C-105.61478582 53.02536646 -105.61478582 53.02536646 -108.625 47.875 C-108.3125 44.625 -108.3125 44.625 -107.625 41.875 C-101.23573826 41.74972036 -101.23573826 41.74972036 -98.1875 42.375 C-89.81244962 44.00915617 -83.0573163 42.48278212 -75.95458984 37.765625 C-71.86182332 34.86634902 -67.9086132 31.78713831 -63.95849609 28.69775391 C-53.35108166 20.41202926 -42.69478993 12.16180179 -31.625 4.5 C-30.6649707 3.83085571 -30.6649707 3.83085571 -29.68554688 3.14819336 C-20.60292731 -3.04283171 -10.29739074 -4.77517693 0 0 Z M80.375 117.875 C76.76063061 121.37528135 76.76063061 121.37528135 75.375 125.875 C77.37363756 125.29555068 77.37363756 125.29555068 79.375 123.875 C80.66731642 120.83300528 80.66731642 120.83300528 81.375 117.875 C81.045 117.875 80.715 117.875 80.375 117.875 Z M54.375 153.875 C53.23631219 155.21767734 52.11469702 156.57483977 51 157.9375 C47.08444522 162.43366145 42.91901812 165.37397955 37.79296875 168.3671875 C35.64099711 169.70912781 34.06305104 171.00188024 32.375 172.875 C41.03806138 171.5339211 47.53061102 166.32795461 53.09765625 159.8046875 C54.41920211 157.80822372 54.95351414 156.21658812 55.375 153.875 C55.045 153.875 54.715 153.875 54.375 153.875 Z M224.375 232.875 C226.99698774 235.02877564 229.01904172 236.27572174 232.375 236.875 C229.97990662 233.97567643 228.06254757 233.37331724 224.375 232.875 Z M-165.625 287.875 C-166.51707179 290.9707107 -166.51707179 290.9707107 -166.625 293.875 C-165.93792969 293.99617188 -165.25085938 294.11734375 -164.54296875 294.2421875 C-163.64191406 294.40976562 -162.74085938 294.57734375 -161.8125 294.75 C-160.91917969 294.91242188 -160.02585938 295.07484375 -159.10546875 295.2421875 C-156.625 295.875 -156.625 295.875 -153.625 297.875 C-153.33441564 292.9350659 -153.41179966 289.77674327 -156.625 285.875 C-160.29722105 283.91648211 -162.59922154 285.33988831 -165.625 287.875 Z M-224.625 302.875 C-227.29523744 306.33187495 -228.68658214 309.42781968 -228.5 313.8125 C-227.81343441 316.0510887 -227.81343441 316.0510887 -225.625 316.875 C-224.14966797 316.81505859 -224.14966797 316.81505859 -222.64453125 316.75390625 C-217.60693035 316.6822569 -213.07554393 318.31827875 -208.3125 319.8125 C-198.17263566 323.04135143 -198.17263566 323.04135143 -187.625 323.875 C-184.1900905 320.4400905 -184.4350306 315.93195887 -184.3125 311.25 C-184.27511719 310.30898438 -184.23773438 309.36796875 -184.19921875 308.3984375 C-184.37965406 305.79087138 -184.37965406 305.79087138 -186.29199219 304.2902832 C-189.04205179 302.62200196 -191.20305751 302.18583433 -194.37890625 301.70703125 C-195.48041016 301.53623047 -196.58191406 301.36542969 -197.71679688 301.18945312 C-198.86212891 301.02380859 -200.00746094 300.85816406 -201.1875 300.6875 C-202.33669922 300.51025391 -203.48589844 300.33300781 -204.66992188 300.15039062 C-215.21327241 298.50163441 -215.21327241 298.50163441 -224.625 302.875 Z M190.375 327.875 C191.375 329.875 191.375 329.875 191.375 329.875 Z M189.375 329.875 C188.50853333 331.30511973 187.65718171 332.74440619 186.8125 334.1875 C186.33683594 334.98800781 185.86117188 335.78851563 185.37109375 336.61328125 C184.032319 338.96658479 184.032319 338.96658479 185.375 341.875 C186.24146667 340.44488027 187.09281829 339.00559381 187.9375 337.5625 C188.41316406 336.76199219 188.88882813 335.96148437 189.37890625 335.13671875 C190.717681 332.78341521 190.717681 332.78341521 189.375 329.875 Z M-205.625 339.875 C-204.635 341.36 -204.635 341.36 -203.625 342.875 C-200.54134129 343.1252157 -200.54134129 343.1252157 -197.625 342.875 C-197.625 342.215 -197.625 341.555 -197.625 340.875 C-200.265 340.545 -202.905 340.215 -205.625 339.875 Z M54.375 485.875 C55.375 487.875 55.375 487.875 55.375 487.875 Z M52.375 488.875 C51.715 490.195 51.055 491.515 50.375 492.875 C51.365 492.215 52.355 491.555 53.375 490.875 C53.045 490.215 52.715 489.555 52.375 488.875 Z M47.375 494.875 C46.385 495.865 45.395 496.855 44.375 497.875 C44.705 498.535 45.035 499.195 45.375 499.875 C46.365 498.885 47.355 497.895 48.375 496.875 C48.045 496.215 47.715 495.555 47.375 494.875 Z " fill="#000000" transform="translate(408.625,63.125)"/>
<path d="M0 0 C47.97739671 -1.08525685 96.84502813 5.23980461 142.53173828 20.06640625 C143.55605957 20.39334473 144.58038086 20.7202832 145.63574219 21.05712891 C192.2238072 36.05041636 235.21536701 59.74518332 273.53173828 90.06640625 C274.91232422 91.15501953 274.91232422 91.15501953 276.32080078 92.265625 C287.44912982 101.19715133 297.63416693 111.07001738 307.7520752 121.11151123 C308.75502614 122.1064184 309.75945251 123.0998409 310.76550293 124.09161377 C317.494211 130.73489493 323.63114498 137.67726096 329.53173828 145.06640625 C330.46666348 146.16811081 331.4080019 147.26445718 332.35986328 148.3515625 C347.74171906 165.99107775 360.8804714 185.79274227 372.53173828 206.06640625 C372.98274902 206.84806152 373.43375977 207.6297168 373.8984375 208.43505859 C407.1105509 266.4353528 426.4910958 334.13036773 427.53173828 401.06640625 C427.55220215 402.10474609 427.57266602 403.14308594 427.59375 404.21289062 C429.27422318 500.04152638 397.0169863 593.92196215 337.53173828 669.06640625 C336.79439453 669.99839844 336.05705078 670.93039062 335.29736328 671.890625 C330.52032906 677.82803811 325.49633532 683.4737833 320.30517578 689.046875 C318.22476825 691.2861789 316.21853129 693.57924509 314.22314453 695.89453125 C310.36126643 700.32529047 306.26022417 704.48541894 302.09423828 708.62890625 C301.38203125 709.34498047 300.66982422 710.06105469 299.93603516 710.79882812 C295.29826595 715.42817269 290.50145904 719.79800228 285.53173828 724.06640625 C284.48359616 724.99205675 283.43664481 725.91905806 282.39111328 726.84765625 C255.41744144 750.55677776 224.81458028 770.62490186 192.44140625 786.14404297 C190.54639634 787.05932646 188.66586186 788.00007464 186.78564453 788.9453125 C137.0097121 813.6043157 81.70921224 824.85654497 26.53173828 827.06640625 C25.64760254 827.1025 24.7634668 827.13859375 23.85253906 827.17578125 C18.73315754 827.35319105 13.64925895 827.26959497 8.53173828 827.06640625 C7.41557129 827.02531738 6.2994043 826.98422852 5.14941406 826.94189453 C-56.88661351 824.44770357 -116.21810274 809.56713169 -171.49853516 781.08007812 C-172.83028357 780.39472619 -174.16434326 779.71384981 -175.50048828 779.03710938 C-219.0735041 756.95243783 -260.88525374 724.48828965 -292.46826172 687.06640625 C-293.37849577 686.01846659 -294.29008159 684.97170032 -295.20263672 683.92578125 C-353.0760605 617.3979513 -390.22342773 532.24196644 -396.46826172 444.06640625 C-396.5246582 443.35291016 -396.58105469 442.63941406 -396.63916016 441.90429688 C-402.56616641 366.36127039 -386.425957 289.04534492 -351.43652344 221.93359375 C-350.44262125 220.01696139 -349.47238005 218.0895013 -348.50341797 216.16015625 C-339.29351086 198.04813936 -328.36645543 180.78047527 -315.82080078 164.79980469 C-314.51356109 163.12446141 -313.23300756 161.43225105 -311.96044922 159.73046875 C-295.83777941 138.24542028 -277.0573404 117.36274625 -256.46826172 100.06640625 C-255.54013672 99.26074219 -254.61201172 98.45507812 -253.65576172 97.625 C-184.20998779 37.55053716 -91.70900057 2.46734403 0 0 Z M-212.46826172 97.06640625 C-213.17418457 97.57413574 -213.88010742 98.08186523 -214.60742188 98.60498047 C-236.66594635 114.57804087 -257.91333038 133.18609144 -275.46826172 154.06640625 C-276.23912109 154.948125 -277.00998047 155.82984375 -277.80419922 156.73828125 C-333.37134886 220.63998177 -363.88359532 299.27453718 -371.46826172 383.06640625 C-371.54173828 383.87770996 -371.61521484 384.68901367 -371.69091797 385.52490234 C-379.64522331 478.54373365 -349.34839316 574.80725024 -280.03076172 663.62890625 C-271.51019219 673.64230604 -262.49395783 683.12579832 -253.21826172 692.44140625 C-252.47374756 693.19059326 -251.7292334 693.93978027 -250.9621582 694.71166992 C-246.29303207 699.36730597 -241.49438976 703.79940712 -236.46826172 708.06640625 C-235.81019531 708.62585938 -235.15212891 709.1853125 -234.47412109 709.76171875 C-225.11184626 717.66198946 -215.58544029 725.16040113 -205.46826172 732.06640625 C-204.79214844 732.53256348 -204.11603516 732.9987207 -203.41943359 733.47900391 C-192.0958742 741.26844243 -180.49332329 748.41282482 -168.46826172 755.06640625 C-167.64487305 755.52402344 -166.82148438 755.98164062 -165.97314453 756.453125 C-116.89526926 783.52272943 -57.72918722 801.02951352 -1.46826172 801.26953125 C-0.36203461 801.27654556 0.7441925 801.28355988 1.88394165 801.29078674 C5.43324911 801.30819004 8.98238972 801.31463885 12.53173828 801.31640625 C14.35085724 801.31741837 14.35085724 801.31741837 16.20672607 801.31845093 C33.84276826 801.30284329 51.09074118 800.90819494 68.53173828 798.06640625 C69.67030273 797.88948242 70.80886719 797.71255859 71.98193359 797.53027344 C112.61480316 791.12852337 152.04633317 779.09160566 188.58691406 760.07568359 C190.57147801 759.0457831 192.56474626 758.03426522 194.55908203 757.0234375 C218.3624926 744.83329983 240.20044368 729.72544809 260.69384766 712.59570312 C262.383053 711.19012631 264.08735593 709.80589707 265.79736328 708.42578125 C273.9918633 701.71237964 281.48359506 694.2982343 288.96923828 686.81640625 C289.75041016 686.03672989 289.75041016 686.03672989 290.54736328 685.24130249 C296.4234215 679.36396908 302.17355378 673.42626916 307.53173828 667.06640625 C308.07145264 666.43347656 308.61116699 665.80054688 309.16723633 665.1484375 C339.66858205 629.193507 363.34826761 588.34207853 379.53173828 544.06640625 C380.05380859 542.63820557 380.05380859 542.63820557 380.58642578 541.18115234 C389.11309929 517.51242095 394.94847525 492.95847187 398.53173828 468.06640625 C398.68126953 467.09155273 398.83080078 466.11669922 398.98486328 465.11230469 C404.18475486 430.06906984 403.97999723 392.06181756 398.53173828 357.06640625 C398.28230469 355.3807959 398.28230469 355.3807959 398.02783203 353.66113281 C391.4512548 310.09739809 377.07732427 267.99587431 356.53173828 229.06640625 C356.14083008 228.31649414 355.74992188 227.56658203 355.34716797 226.79394531 C341.07721858 199.54729524 323.0079096 174.37038989 302.08642578 151.83984375 C300.01922587 149.5956359 298.01138749 147.32454766 296.03173828 145.00390625 C289.74047592 137.7621654 282.82542753 131.00169589 275.52392578 124.78515625 C274.13043237 123.58292664 272.76231938 122.35093184 271.41455078 121.09765625 C263.58159128 113.81854237 255.10300165 107.43970409 246.53173828 101.06640625 C245.92813477 100.61620117 245.32453125 100.16599609 244.70263672 99.70214844 C183.38843512 54.21548489 108.48559582 28.71373542 32.34423828 25.50390625 C30.97428711 25.43913086 30.97428711 25.43913086 29.57666016 25.37304688 C-56.15537636 21.6558285 -142.79220885 46.88650471 -212.46826172 97.06640625 Z " fill="#000000" transform="translate(397.46826171875,-0.06640625)"/>
<path d="M0 0 C1.84561523 0.29487305 1.84561523 0.29487305 3.72851562 0.59570312 C13.62042171 2.34576816 13.62042171 2.34576816 16.7421875 5.30078125 C18.89483666 8.49007482 19.14541606 10.03694766 18.4375 13.8125 C16.77617489 17.21426095 15.28118122 18.50901755 11.72265625 19.7890625 C8.97271085 20.54644772 6.22741735 21.22084511 3.4375 21.8125 C3.98345027 27.5995729 5.21757178 32.76426321 7.01171875 38.296875 C7.5136845 41.26261757 7.12359473 42.36600961 5.4375 44.8125 C3.625 45.8125 3.625 45.8125 1.4375 45.8125 C-4.3450754 42.55053439 -7.49937164 36.44028852 -9.3203125 30.2265625 C-9.79628049 28.10146596 -10.18792533 25.95779128 -10.5625 23.8125 C-13.51757955 25.15551698 -13.51757955 25.15551698 -15.8125 27.375 C-18.74997699 29.78792753 -21.90559534 29.90012551 -25.5625 29.8125 C-33.61398829 28.71262826 -38.85982093 26.51517907 -44.5625 20.8125 C-45.5525 20.1525 -46.5425 19.4925 -47.5625 18.8125 C-46.92941007 12.16505573 -44.10238172 8.04121258 -39.25 3.625 C-27.7682867 -5.56519489 -13.6149552 -2.45876549 0 0 Z " fill="#000000" transform="translate(210.5625,275.1875)"/>
<path d="M0 0 C1.65 0.33 3.3 0.66 5 1 C5.33 2.32 5.66 3.64 6 5 C3.6875 5.6875 3.6875 5.6875 1 6 C-0.8125 4.5625 -0.8125 4.5625 -2 3 C-1.34 2.01 -0.68 1.02 0 0 Z " fill="#000000" transform="translate(196,368)"/>
</svg>
