<svg version="1.1" id="Layer_1" xmlns="http://www.w3.org/2000/svg" xmlns:xlink="http://www.w3.org/1999/xlink" x="0px" y="0px"
	 width="100%" viewBox="0 0 1024 1024" enable-background="new 0 0 1024 1024" xml:space="preserve">
<path fill="#000000" opacity="1.000000" stroke="none" 
	d="
M705.813110,140.100204 
	C748.179565,162.279373 785.432922,190.562820 817.169434,225.859451 
	C851.236633,263.748291 878.149475,306.131409 896.439026,353.871246 
	C905.389587,377.234009 913.165588,400.907684 917.605774,425.567444 
	C920.841248,443.536713 923.612061,461.553040 924.478149,479.860596 
	C924.879517,488.343964 925.219177,496.812958 925.265381,505.300018 
	C925.492737,547.062500 918.744995,587.757080 905.950989,627.426025 
	C882.903198,698.887878 843.738098,760.199158 788.216370,810.716980 
	C747.111633,848.117188 700.402344,876.568542 647.834229,895.143494 
	C618.370300,905.554504 588.170288,912.841125 557.116150,916.059509 
	C531.269409,918.738220 505.381012,918.805603 479.391205,916.509705 
	C409.190369,910.308533 345.107422,887.202515 286.683105,848.143066 
	C245.701965,820.745239 210.903015,786.887512 181.768875,747.075989 
	C147.538391,700.300415 124.175323,648.621033 111.214569,592.250549 
	C106.486023,571.684509 103.792549,550.759094 102.593605,529.633423 
	C102.168983,522.151428 101.754837,514.687988 101.720657,507.197845 
	C101.504715,459.875854 108.820335,413.806305 124.390465,369.059937 
	C141.385605,320.218292 166.359283,275.961975 199.879593,236.545776 
	C243.457657,185.302780 296.348694,147.041519 358.946594,122.285934 
	C389.411377,110.238029 420.876038,101.792160 453.241913,96.926659 
	C473.814941,93.833961 494.602753,92.418892 515.400757,92.854370 
	C575.481628,94.112366 633.301880,105.834213 687.996704,131.368042 
	C693.876953,134.113220 699.663879,137.058594 705.813110,140.100204 
M157.347961,658.200806 
	C170.035141,688.139526 186.639252,715.766479 206.518311,741.456116 
	C239.469818,784.039307 279.358795,818.746460 326.166931,845.237915 
	C355.416351,861.791992 386.574615,873.914917 419.213654,882.248657 
	C443.954681,888.565796 469.052307,892.539307 494.496368,893.569397 
	C521.625183,894.667725 548.693542,893.291687 575.566711,888.780212 
	C609.903442,883.015686 643.034424,873.334595 674.570557,858.578430 
	C727.588257,833.770935 772.914185,798.846741 810.475647,753.935730 
	C838.403320,720.543579 860.132996,683.456848 875.694702,642.815857 
	C889.282837,607.328979 897.430725,570.657654 899.907837,532.648926 
	C901.690063,505.302490 901.053101,478.058746 897.368103,450.996185 
	C894.453308,429.589996 889.611267,408.520905 883.085022,387.813904 
	C861.976135,320.838013 826.114441,263.364532 773.855713,216.298004 
	C742.016418,187.622025 706.441711,164.733658 667.001587,147.932632 
	C624.317932,129.749939 579.638000,119.830132 533.433105,117.500595 
	C509.696564,116.303864 485.891144,116.881744 462.166565,120.039795 
	C427.468597,124.658554 393.837036,133.186325 361.606537,146.660660 
	C301.574615,171.757706 251.082352,209.584122 210.488403,260.703552 
	C159.271713,325.200043 131.565765,398.646515 126.537689,480.533447 
	C124.816376,508.566620 125.826584,536.742859 130.413483,564.638672 
	C135.675720,596.641846 144.341248,627.641968 157.347961,658.200806 
z"/>
<path fill="#000000" opacity="1.000000" stroke="none" 
	d="
M828.942322,322.927063 
	C830.879517,321.437500 832.508606,321.525146 833.934204,323.707153 
	C837.856567,329.710510 841.503601,335.839722 844.219116,342.520416 
	C845.854797,346.544434 844.210205,349.685150 842.095825,352.723450 
	C837.189880,359.772980 830.846375,365.458038 824.065491,370.590942 
	C809.305237,381.764099 793.934814,391.987915 777.218018,400.097290 
	C772.626404,402.324707 768.436218,402.145508 763.928040,400.059235 
	C758.736572,397.656799 753.388916,395.592163 748.071899,393.365234 
	C746.700867,396.757172 748.818726,397.291077 750.399963,397.972626 
	C755.593201,400.211121 760.780640,402.481384 766.071899,404.468781 
	C770.163086,406.005402 770.995850,408.318573 769.042297,412.167328 
	C764.947388,420.234894 757.228638,421.579803 749.601013,422.053528 
	C744.839294,422.349213 742.508301,424.034088 740.616455,428.178741 
	C736.471069,437.260254 731.952454,446.178802 727.341858,455.036743 
	C725.550903,458.477661 725.537964,461.260773 728.555542,463.826782 
	C733.081726,467.675659 733.362366,471.337158 730.113037,476.765320 
	C726.671692,482.514191 724.209900,488.940308 721.009094,494.936157 
	C719.092468,498.526398 716.778564,501.310028 712.804382,502.385468 
	C708.974792,503.421783 706.577881,505.852203 704.884583,509.381378 
	C700.995056,517.487793 696.906372,525.498535 692.907471,533.552551 
	C692.094360,535.190125 690.933716,536.959778 692.495850,538.626404 
	C693.998901,540.229797 695.647949,538.748352 697.066589,538.186340 
	C723.836548,527.581238 750.572449,516.889954 777.338562,506.274963 
	C785.844788,502.901520 794.325928,499.424774 802.988525,496.498260 
	C810.397217,493.995300 814.623169,496.564087 816.514648,503.821533 
	C817.885986,509.083282 816.709290,512.107727 811.589417,514.252991 
	C794.393250,521.458191 777.101013,528.433777 759.860840,535.534424 
	C728.150696,548.594788 696.447998,561.673279 664.750305,574.763794 
	C657.498840,577.758423 657.525391,577.788879 653.851868,570.991394 
	C652.427063,568.354919 651.061768,565.673645 649.446106,563.156128 
	C647.466431,560.071411 648.431396,558.350403 651.588135,557.092773 
	C656.071045,555.306946 660.453369,553.268738 664.934814,551.478760 
	C668.406006,550.092224 670.698792,547.680969 672.111816,544.279175 
	C677.289856,531.813965 683.414001,519.798279 689.468323,507.747894 
	C690.432312,505.829224 691.020630,503.721924 692.158447,501.158081 
	C696.745361,494.399078 701.288879,488.344757 702.769653,479.293793 
	C696.876648,486.400635 693.451538,493.217804 692.030457,501.034882 
	C688.829895,502.247894 685.650024,502.577911 682.270996,501.519226 
	C671.092651,498.016876 659.942810,500.221710 648.750916,501.728210 
	C631.355957,504.069672 614.005432,504.369110 596.672302,500.615479 
	C587.386047,498.604492 580.537292,493.835297 576.039001,485.566132 
	C573.891113,481.617676 571.892090,477.585114 569.646545,473.693970 
	C568.136963,471.078094 567.853821,468.748474 570.486877,466.522278 
	C566.986816,465.810577 565.252075,467.674561 563.390564,469.901489 
	C553.379272,481.878143 544.307434,494.347504 540.875977,510.003326 
	C540.392578,512.208435 538.888123,513.535828 536.166626,514.468262 
	C548.142395,517.348999 559.354187,519.778809 570.414490,522.768799 
	C587.170959,527.298645 603.519836,533.001526 618.402649,542.180603 
	C638.101440,554.330078 650.173889,571.365845 653.057068,594.829224 
	C655.692993,616.279663 658.554932,637.666809 658.339478,659.347595 
	C658.285950,664.738037 656.235596,668.768677 651.842651,671.494995 
	C643.070374,676.939087 633.315918,679.640137 623.179260,681.090576 
	C622.576355,681.176819 621.916748,680.866211 621.009644,680.685852 
	C621.336853,674.238708 625.842224,668.492432 623.822754,661.210388 
	C620.579529,664.834595 619.205872,668.914307 617.079468,672.499878 
	C604.677979,693.411682 591.625977,713.940186 580.111511,735.378235 
	C578.309143,738.734009 577.484009,741.326233 580.992249,744.032837 
	C583.202393,745.737854 583.605591,748.184204 582.296448,750.779785 
	C580.948425,753.452454 579.815308,756.254822 578.252380,758.793762 
	C572.974915,767.366516 572.292786,776.484497 574.062500,786.192383 
	C576.786743,801.136353 582.396912,814.577576 593.119934,825.592712 
	C596.045532,828.598022 596.486267,832.181702 594.874390,835.737732 
	C593.245178,839.331970 589.776001,838.911682 586.587708,838.326599 
	C563.746765,834.134399 545.789978,824.066223 539.593506,799.584412 
	C538.767700,796.321777 537.947144,792.862366 535.612549,789.858643 
	C533.003479,791.841125 532.804077,794.638855 532.319397,797.123413 
	C531.560303,801.014832 529.595459,801.594055 526.223083,800.241699 
	C522.255920,798.650757 519.048218,796.058899 516.086731,793.101685 
	C515.135437,792.151733 514.170044,790.873718 514.700073,789.536194 
	C517.320862,782.922546 516.662109,775.751892 518.389526,768.973267 
	C520.231873,761.743652 523.917542,755.789429 529.507507,751.011475 
	C534.316711,746.900879 537.848511,742.030457 539.740540,735.957886 
	C540.848633,732.401184 542.789001,729.730103 547.017395,729.481445 
	C548.953064,729.367615 550.527100,728.143860 551.139404,726.261292 
	C555.088684,714.118774 558.959229,701.950562 562.837952,689.845947 
	C561.054016,688.587158 560.029236,689.736511 559.012634,690.441772 
	C548.745300,697.565430 537.335449,700.904785 524.981018,699.270447 
	C514.519104,697.886475 506.526794,700.979919 500.265533,709.377991 
	C498.496735,711.750488 496.038910,713.616516 493.855713,715.670837 
	C491.156433,718.210754 488.433350,720.650208 490.397064,724.988647 
	C490.976532,726.268921 490.237305,727.512634 489.345093,728.636658 
	C486.862732,731.764160 484.826935,735.274963 481.740601,737.883057 
	C470.886536,747.055725 468.449951,759.726746 467.314087,772.846863 
	C466.324677,784.275757 468.722229,794.982971 474.722412,804.898560 
	C476.464417,807.777222 478.684296,811.085876 475.743958,814.562805 
	C472.695251,818.167725 468.412354,818.227844 464.704163,816.704163 
	C447.365479,809.579834 434.122559,798.331238 430.153015,779.021118 
	C429.164215,774.211060 429.865173,769.062073 429.685181,764.072693 
	C429.622711,762.340698 430.432220,760.373047 428.705383,758.956909 
	C428.328674,758.981201 427.918610,758.880310 427.697937,759.040405 
	C419.484985,765.000244 416.451660,764.319580 411.317902,755.679871 
	C409.453217,752.541687 409.429413,749.861755 411.789581,747.006409 
	C416.253479,741.605835 420.165375,735.815979 423.736786,729.778687 
	C427.826569,722.864929 434.495178,718.966187 441.407104,715.574646 
	C446.621185,713.016235 451.147980,709.952942 454.023743,704.695618 
	C455.402374,702.175232 457.595795,699.819824 460.606415,699.856384 
	C464.561310,699.904480 466.018494,697.631409 467.616272,694.676514 
	C470.466064,689.406067 473.712769,684.351440 476.737427,679.173767 
	C477.784821,677.380737 479.838684,675.526184 478.042084,673.350769 
	C476.469269,671.446411 473.962677,672.147034 471.909546,672.545349 
	C459.927063,674.870117 448.807648,672.161560 438.069092,667.017212 
	C437.469452,666.729919 436.895142,666.385071 436.326355,666.038513 
	C429.538025,661.902344 429.207245,661.165100 430.853638,653.792664 
	C428.767456,652.786743 426.978577,654.035095 425.171692,654.656555 
	C422.813995,655.467529 420.542969,656.529724 418.230682,657.474060 
	C415.482941,658.596313 411.754913,658.302979 410.103027,660.849121 
	C408.277008,663.663696 411.363556,666.354553 411.991577,669.180786 
	C413.788147,677.265686 406.953888,683.455261 397.707825,682.058716 
	C392.269470,681.237244 387.176239,679.231628 381.878662,677.272583 
	C379.222900,682.279053 375.668335,685.913513 370.750366,688.039124 
	C368.511414,689.006897 368.569519,691.105835 367.986755,692.998718 
	C356.938080,728.886658 334.202301,753.617798 298.134796,765.177917 
	C289.075928,768.081421 279.574402,769.092102 270.139496,766.166626 
	C268.632996,765.699463 266.790070,765.668579 265.720001,763.136963 
	C288.993866,752.521667 313.109955,743.019836 329.102600,721.472534 
	C315.183258,733.754028 299.846497,743.798645 282.634186,750.906250 
	C276.285889,753.527771 269.691956,755.216553 262.886627,756.042786 
	C257.223389,756.730347 251.952911,755.621704 247.232254,752.270630 
	C240.418793,747.433899 234.712479,741.514343 228.960281,733.843323 
	C244.856613,733.608887 260.100220,734.893005 274.380249,728.783020 
	C269.438965,728.847534 264.550629,729.321533 259.625977,729.382935 
	C240.860703,729.616455 226.055298,721.144226 212.957458,708.705627 
	C210.465408,706.339050 210.563568,704.577637 213.534531,702.379150 
	C224.946640,693.933777 237.744949,687.714844 249.422485,679.713135 
	C249.816040,679.443420 250.268585,679.259888 250.412247,678.624207 
	C242.976822,680.250427 236.339981,683.597656 229.713531,686.905273 
	C224.928146,689.293945 219.968994,691.176392 214.960129,693.003845 
	C207.666351,695.664978 201.483994,693.658936 196.161728,688.582886 
	C191.829163,684.450684 188.608856,679.474182 186.161743,674.104614 
	C187.901047,672.409058 189.679398,672.661865 191.236450,672.793640 
	C205.134323,673.969788 216.912369,668.340210 228.295944,661.412537 
	C236.545944,656.391846 244.441376,650.798462 253.035294,646.331299 
	C275.352570,634.730530 298.743713,633.309143 322.915955,638.708679 
	C331.608856,640.650513 339.860870,643.742432 347.434570,648.367004 
	C350.509308,650.244446 352.755249,648.932068 355.348938,647.866699 
	C364.107697,644.268860 364.108948,644.289490 368.825195,652.386353 
	C369.060089,652.789673 369.546356,653.046509 370.176514,653.601257 
	C371.428314,652.094788 370.722626,650.393311 370.891205,648.901733 
	C371.753845,641.271179 374.566132,634.734314 381.299591,630.460205 
	C387.927155,626.253174 392.678009,627.483887 396.678345,634.309509 
	C400.401855,640.662781 400.436249,640.738403 406.966766,637.772583 
	C419.705383,631.987305 432.405823,626.117798 445.109375,620.255676 
	C446.598938,619.568298 448.243042,619.025085 449.058838,617.360535 
	C449.075256,615.640198 447.584167,615.245300 446.492706,614.652527 
	C420.811005,600.704468 413.694824,578.146973 419.319672,550.144470 
	C422.639618,533.616516 431.670837,520.124390 442.133301,507.401337 
	C448.276825,499.930450 455.006897,493.007935 461.906952,486.244843 
	C462.611633,485.554169 463.394836,484.349335 464.118561,484.366333 
	C469.952942,484.503235 469.874939,480.586639 469.640839,476.578918 
	C469.394867,472.367462 470.217804,468.310760 471.119568,464.242310 
	C471.438934,462.801239 471.812225,461.232269 471.560913,459.829193 
	C470.561890,454.251099 468.531769,453.506958 464.043030,456.970978 
	C459.420837,460.537964 454.696747,463.943726 449.577148,466.769623 
	C447.330231,468.009888 446.029968,469.473938 446.936340,472.395325 
	C448.081879,476.087524 446.723724,479.241302 443.943085,481.851776 
	C439.926636,485.622437 435.719177,489.172577 431.116150,492.187500 
	C426.257721,495.369690 423.224518,495.092590 420.027802,490.324219 
	C417.153900,486.037231 414.535767,486.124420 410.595062,488.633698 
	C398.813324,496.135864 386.073486,502.101166 375.028595,510.797577 
	C374.281982,511.385468 373.455017,511.604095 373.160034,512.838745 
	C366.895569,539.059509 358.569885,564.686218 350.538635,590.391907 
	C347.548096,599.963684 344.106903,601.756409 334.403870,599.391296 
	C298.682007,590.684021 262.983398,581.880798 227.292542,573.047180 
	C220.496719,571.365112 218.325653,567.724976 219.510696,560.453735 
	C223.544312,535.704834 227.681702,510.972626 231.605682,486.206482 
	C232.194611,482.489532 233.221832,481.650757 237.103455,482.578308 
	C254.735825,486.791687 272.451721,490.663483 290.182159,494.449249 
	C292.653778,494.976959 295.690613,495.928314 297.839844,492.780853 
	C292.668365,494.212280 289.106476,487.805267 283.518463,490.229492 
	C282.745331,490.564880 280.327850,487.748810 277.952423,487.147369 
	C262.316925,483.188416 246.754303,478.945007 230.851379,476.122040 
	C227.846176,475.588562 226.731094,473.712860 227.440567,470.642334 
	C228.856720,464.513336 232.530060,462.211304 238.674103,463.547180 
	C249.455078,465.891235 249.674316,466.224396 250.676758,454.153473 
	C251.489853,444.362457 253.804520,435.165833 259.087402,426.778656 
	C261.772461,422.515808 267.712158,421.141296 269.485260,417.097412 
	C271.249207,413.074310 269.131073,407.701019 270.767517,402.979553 
	C272.015106,399.380035 273.548859,397.488251 277.959900,398.521088 
	C282.946960,399.688721 288.161346,399.920868 293.288849,400.441833 
	C297.052887,400.824341 298.324921,402.910889 298.292969,406.511414 
	C298.260071,410.218262 297.808289,413.850983 296.697601,417.329895 
	C295.868134,419.927979 296.415649,421.812164 298.237823,423.643829 
	C302.202148,427.628906 303.773071,432.613068 304.105286,438.097534 
	C304.328979,441.790039 307.934418,444.702881 312.796356,445.258087 
	C316.782928,445.713318 316.846985,442.488647 317.513092,440.078400 
	C318.189056,437.632568 319.179840,435.384308 320.450348,433.221710 
	C323.226044,428.497070 327.942017,425.249725 329.037018,419.066711 
	C329.690125,415.378693 333.175964,413.658630 338.465698,415.318634 
	C344.614777,417.248352 351.214447,418.396698 357.667572,419.597107 
	C366.090210,421.163940 372.048065,429.446411 370.931396,438.219177 
	C369.226501,451.613953 365.605804,464.588501 362.638947,477.708130 
	C362.271820,479.331635 361.409119,481.037415 361.647095,482.569794 
	C362.674805,489.187866 365.802460,492.962585 372.408569,488.904419 
	C382.053009,482.979767 390.670502,475.557556 399.245270,468.169769 
	C400.419464,467.158081 401.302399,465.421387 401.627808,463.874725 
	C403.626526,454.374878 409.866852,447.618591 416.382263,441.170166 
	C429.109558,428.573761 439.854401,414.389465 450.380829,399.991608 
	C457.576263,390.149872 465.917725,381.293945 474.526947,372.683197 
	C476.344452,370.865387 477.933990,368.819672 479.417847,366.676819 
	C469.762390,371.481873 460.986969,377.364166 453.829407,385.487793 
	C449.734406,390.135468 445.084778,394.242523 439.686401,397.293671 
	C431.484711,401.929260 422.910400,403.514496 413.967773,399.269073 
	C413.379547,398.989838 412.845398,398.565826 412.350342,398.135254 
	C412.128082,397.941895 412.064301,397.566315 411.680023,396.736816 
	C418.132263,395.037842 424.965820,394.260956 430.205170,389.151123 
	C401.809631,393.284637 377.399017,387.486053 360.247742,362.633026 
	C370.097076,364.546631 379.642273,368.018524 389.948212,366.205933 
	C389.596222,362.992249 387.455811,363.594696 385.766296,363.307861 
	C371.727661,360.924438 358.376801,356.827942 348.866821,345.409821 
	C342.446899,337.701813 339.216583,328.732391 341.767273,318.487091 
	C342.644745,314.962646 343.853516,311.561523 347.280670,309.907745 
	C348.752380,310.674011 349.012085,311.608368 349.181305,312.629150 
	C351.166473,324.606537 359.221832,330.991730 370.860992,328.462524 
	C381.879852,326.068054 391.281189,319.185089 402.158142,315.753723 
	C394.004547,310.140289 385.272766,313.004578 375.767395,313.604126 
	C379.281433,306.546875 384.013062,301.517700 389.480591,297.371307 
	C398.002472,290.908600 407.497375,289.294952 417.761047,293.138397 
	C423.227661,295.185486 428.638763,297.316772 433.843506,299.968719 
	C445.736328,306.028381 458.054108,307.976898 470.977722,303.650848 
	C471.559967,303.455963 472.054352,302.998596 474.053833,301.746918 
	C464.462677,299.020142 454.000519,301.196320 448.010284,291.625458 
	C468.885986,278.428619 491.296509,268.701965 512.858337,257.291504 
	C505.730896,258.251678 499.235809,261.246582 492.041687,264.073639 
	C492.041687,254.122162 491.844971,245.179840 492.109680,236.251190 
	C492.291382,230.122391 493.288879,224.020935 493.580841,217.891022 
	C493.739685,214.555740 492.816162,211.306656 490.916748,208.419815 
	C488.637604,204.955994 486.424927,201.448471 483.933960,197.571503 
	C479.748535,198.684784 475.996979,201.149521 472.109985,203.221405 
	C462.674103,208.251068 453.144104,213.049454 442.446991,214.723175 
	C429.807007,216.700882 417.942871,214.254608 406.931213,207.777557 
	C405.665924,207.033340 404.478394,205.997955 403.565125,204.850571 
	C402.102692,203.013275 400.664917,200.874283 402.241302,198.502777 
	C403.765076,196.210480 406.083679,197.004593 408.142151,197.722198 
	C418.118805,201.200211 427.022400,199.106796 435.381073,192.967224 
	C450.549988,181.825424 465.130249,169.911957 480.509552,159.037338 
	C491.571198,151.215652 502.001495,151.336807 513.321106,158.620270 
	C540.906555,176.369873 566.017212,197.118362 589.534180,219.891159 
	C591.546509,221.839798 592.852600,223.755066 590.624268,226.830841 
	C593.578918,225.924408 596.538208,225.032776 599.487488,224.109161 
	C619.188049,217.939697 638.994934,212.224136 659.610046,209.933731 
	C661.986267,209.669708 664.443970,209.484283 665.891479,211.844727 
	C667.211365,213.997086 666.095459,216.060684 664.951416,217.925217 
	C657.109253,230.705994 645.370667,239.100006 632.604431,246.216034 
	C626.210693,249.779953 619.538086,252.843124 612.997803,256.145020 
	C611.221497,257.041779 609.166809,257.740997 610.208008,260.508820 
	C612.183716,265.760956 611.461121,271.085663 609.996338,276.226776 
	C608.867615,280.188232 609.807983,283.499268 611.966919,286.587830 
	C615.017883,290.952484 618.462769,295.045685 621.440613,299.456573 
	C625.773560,305.874878 624.971863,307.781036 617.598328,309.782471 
	C615.992493,310.218323 614.400146,310.703735 612.792725,311.133362 
	C610.559143,311.730438 609.691467,312.987885 609.664734,315.460541 
	C609.594055,321.996979 608.175171,323.432861 601.120972,324.710632 
	C608.412720,330.780396 604.328186,337.130585 601.708313,343.212341 
	C599.968567,347.251129 594.685669,349.135193 589.605408,348.008118 
	C586.367920,347.289856 583.149414,346.325775 580.069092,345.102600 
	C576.809326,343.808105 574.208984,344.292542 572.066345,347.012177 
	C569.063721,350.823334 566.570007,354.959137 564.599426,359.389618 
	C563.903076,360.955322 563.467224,362.642792 565.559448,363.661621 
	C573.021912,367.295410 576.846375,374.290070 581.076904,380.798401 
	C588.783569,392.654419 593.298401,405.927887 597.304382,419.357208 
	C600.967163,431.636047 604.364441,443.994476 607.827759,456.332123 
	C608.628113,459.183472 609.490723,462.050323 608.944885,465.355835 
	C621.732300,467.776001 634.381348,469.386505 647.066162,470.988861 
	C656.659302,472.200653 666.363647,470.300201 675.825012,472.785004 
	C677.863037,473.320251 679.344421,472.119934 680.396179,470.452911 
	C687.279541,459.542603 697.198975,453.144104 709.769348,450.725311 
	C712.172974,450.262817 713.499634,448.642059 714.545898,446.701691 
	C719.211914,438.047760 723.495972,429.216431 727.068604,420.042358 
	C728.299683,416.881073 728.233582,414.070526 726.637939,410.977844 
	C724.271362,406.391144 722.494934,401.507538 721.306641,396.471039 
	C719.831421,390.218109 724.434448,385.347290 730.855713,387.157990 
	C735.889771,389.967773 739.993713,393.191315 745.439636,394.558899 
	C743.877686,390.100769 735.535583,386.026123 730.987610,387.018738 
	C728.067017,381.816467 728.750000,376.117096 728.734558,370.521698 
	C728.663147,344.673767 727.010376,319.034058 719.186646,294.145538 
	C717.500244,288.781036 719.253174,285.609833 724.631165,283.630096 
	C735.729858,279.544342 747.357788,279.972229 758.707397,281.050110 
	C783.210938,283.377197 804.333679,293.819702 822.596130,310.188690 
	C823.092407,310.633514 823.543152,311.137421 824.075500,311.532501 
	C828.072937,314.499023 829.725037,317.904358 825.802246,322.841797 
	C820.106140,329.018707 815.500000,335.212708 811.510315,341.875366 
	C817.898621,336.042053 824.847473,330.769135 828.942322,322.927063 
M296.100922,453.950653 
	C289.896820,453.124786 283.050385,457.689911 281.365570,463.776001 
	C279.410156,470.839569 281.728882,473.424652 288.957275,472.111481 
	C290.127228,471.898956 291.024780,471.790680 292.226868,472.333954 
	C300.567017,476.103119 309.650085,477.285095 318.413635,479.584564 
	C321.496399,480.393433 323.765778,479.022797 324.315521,475.878906 
	C325.025940,471.815704 325.959625,467.776855 325.855927,463.576385 
	C325.771423,460.152222 324.294373,458.434875 320.915649,457.932922 
	C312.895630,456.741425 304.898346,455.397064 296.100922,453.950653 
M347.227020,449.303925 
	C350.679504,450.327789 355.521881,449.588226 354.648682,456.995514 
	C357.381104,450.435883 357.277832,445.524078 353.431854,441.283752 
	C351.714935,439.390778 349.005890,439.384583 346.885376,440.523590 
	C342.138855,443.073120 342.146057,447.893311 341.777130,452.585388 
	C342.929718,450.745026 343.584534,448.385376 347.227020,449.303925 
M546.419983,324.004913 
	C543.638000,325.583435 540.855957,327.161987 537.348083,329.152374 
	C547.008850,330.856415 566.020203,316.819763 566.146301,306.528076 
	C560.189331,313.272583 554.670532,319.687958 546.419983,324.004913 
M556.909363,653.414062 
	C562.017029,647.437805 567.180725,641.498840 569.846069,633.855347 
	C562.463257,642.422546 556.097961,651.798035 547.728699,659.502197 
	C548.014099,659.801819 548.299500,660.101440 548.584900,660.401062 
	C551.186890,658.228699 553.788818,656.056274 556.909363,653.414062 
M314.578247,497.339172 
	C310.786072,494.610474 306.461395,494.300964 301.621857,493.793976 
	C304.090485,498.759827 308.437927,499.889374 314.578247,497.339172 
M589.329651,278.700500 
	C590.648499,276.551453 591.675842,274.332489 591.644592,270.756134 
	C589.555908,273.292450 588.143555,274.915558 586.837341,276.620056 
	C585.588379,278.249786 583.866577,279.668793 583.800537,282.096558 
	C586.418274,282.401367 587.586792,280.708405 589.329651,278.700500 
M344.900848,475.865662 
	C344.900848,472.742554 344.900848,469.619476 344.900848,466.496368 
	C344.448730,466.522980 343.996613,466.549622 343.544464,466.576233 
	C343.120331,470.807739 343.006195,475.034729 344.366241,479.332581 
	C344.538788,478.435608 344.711365,477.538635 344.900848,475.865662 
M351.297943,470.101868 
	C350.458099,473.123505 349.543182,476.134430 349.955078,479.339233 
	C350.410706,476.097137 353.293671,473.270020 351.297943,470.101868 
z"/>
<path fill="#000000" opacity="1.000000" stroke="none" 
	d="
M277.133789,394.319824 
	C272.336212,392.755249 270.480530,387.910645 266.070404,386.280548 
	C264.305267,385.628082 264.910400,383.477631 265.432465,381.804779 
	C268.480225,372.038666 281.564697,363.635406 291.860565,365.164856 
	C301.872742,366.652191 311.846375,368.407623 321.819916,370.142975 
	C326.260498,370.915588 329.448395,372.609131 329.422546,378.187988 
	C329.396179,383.883820 325.938538,385.187714 321.583618,385.977020 
	C312.341156,387.652252 311.895172,388.421509 315.083710,397.743744 
	C315.837158,399.946564 316.537323,402.176361 317.448151,404.314423 
	C318.658020,407.154388 318.175323,409.957977 315.895569,411.528870 
	C313.291809,413.322937 311.202240,410.988983 309.621429,409.065033 
	C306.080475,404.755371 303.594757,399.891052 302.769470,394.303436 
	C302.502594,392.496735 302.675262,390.366577 300.507294,389.723938 
	C298.536072,389.139618 297.594818,390.955353 296.555298,392.192230 
	C290.899811,398.921356 284.041321,395.208557 277.133789,394.319824 
z"/>
<path fill="#000000" opacity="1.000000" stroke="none" 
	d="
M338.535522,412.533203 
	C336.140015,407.078674 338.953857,402.621704 340.509155,397.996857 
	C340.863251,396.943817 341.813507,396.622314 342.952026,396.850281 
	C347.810730,397.823090 352.670746,398.790985 357.540863,399.704285 
	C360.410217,400.242340 361.421936,401.587585 360.520905,404.603271 
	C359.482269,408.079468 358.918213,411.697327 358.145172,415.253021 
	C357.656525,417.500732 356.028015,418.583740 354.119751,417.632294 
	C349.213593,415.186096 343.799591,414.539459 338.535522,412.533203 
z"/>
<path fill="#000000" opacity="1.000000" stroke="none" 
	d="
M295.953735,463.752136 
	C297.394287,459.525116 299.418945,459.577789 302.738922,463.814667 
	C300.601959,466.129852 298.400024,465.252319 295.953735,463.752136 
z"/>
</svg>